<svg width="1428" height="283" viewBox="0 0 1428 283" fill="none" xmlns="http://www.w3.org/2000/svg">
<path d="M639.719 61V221H617.531L536.203 103.656H534.719V221H510.578V61H532.922L614.328 178.5H615.812V61H639.719ZM719.205 223.422C707.955 223.422 698.138 220.844 689.752 215.687C681.367 210.531 674.857 203.318 670.221 194.047C665.586 184.776 663.268 173.943 663.268 161.547C663.268 149.099 665.586 138.214 670.221 128.891C674.857 119.568 681.367 112.328 689.752 107.172C698.138 102.016 707.955 99.4375 719.205 99.4375C730.455 99.4375 740.273 102.016 748.659 107.172C757.044 112.328 763.554 119.568 768.19 128.891C772.825 138.214 775.143 149.099 775.143 161.547C775.143 173.943 772.825 184.776 768.19 194.047C763.554 203.318 757.044 210.531 748.659 215.687C740.273 220.844 730.455 223.422 719.205 223.422ZM719.284 203.812C726.575 203.812 732.617 201.885 737.409 198.031C742.2 194.177 745.742 189.047 748.034 182.641C750.377 176.234 751.549 169.177 751.549 161.469C751.549 153.812 750.377 146.781 748.034 140.375C745.742 133.917 742.2 128.734 737.409 124.828C732.617 120.922 726.575 118.969 719.284 118.969C711.94 118.969 705.846 120.922 701.002 124.828C696.211 128.734 692.643 133.917 690.299 140.375C688.008 146.781 686.862 153.812 686.862 161.469C686.862 169.177 688.008 176.234 690.299 182.641C692.643 189.047 696.211 194.177 701.002 198.031C705.846 201.885 711.94 203.812 719.284 203.812ZM852.833 101V119.75H787.286V101H852.833ZM804.864 72.25H828.223V185.766C828.223 190.297 828.901 193.708 830.255 196C831.609 198.24 833.354 199.776 835.489 200.609C837.677 201.391 840.046 201.781 842.598 201.781C844.473 201.781 846.114 201.651 847.52 201.391C848.927 201.13 850.02 200.922 850.802 200.766L855.02 220.062C853.666 220.583 851.739 221.104 849.239 221.625C846.739 222.198 843.614 222.51 839.864 222.563C833.718 222.667 827.989 221.573 822.677 219.281C817.364 216.99 813.067 213.448 809.786 208.656C806.505 203.865 804.864 197.849 804.864 190.609V72.25ZM924.702 223.422C912.879 223.422 902.697 220.896 894.155 215.844C885.666 210.74 879.103 203.578 874.468 194.359C869.885 185.089 867.593 174.229 867.593 161.781C867.593 149.49 869.885 138.656 874.468 129.281C879.103 119.906 885.562 112.589 893.843 107.328C902.176 102.068 911.916 99.4375 923.062 99.4375C929.833 99.4375 936.395 100.557 942.749 102.797C949.103 105.036 954.806 108.552 959.859 113.344C964.911 118.135 968.895 124.359 971.812 132.016C974.728 139.62 976.187 148.865 976.187 159.75V168.031H880.796V150.531H953.296C953.296 144.385 952.046 138.943 949.546 134.203C947.046 129.411 943.53 125.635 938.999 122.875C934.52 120.115 929.26 118.734 923.218 118.734C916.655 118.734 910.926 120.349 906.03 123.578C901.187 126.755 897.437 130.922 894.78 136.078C892.176 141.182 890.874 146.729 890.874 152.719V166.391C890.874 174.411 892.28 181.234 895.093 186.859C897.958 192.484 901.942 196.781 907.046 199.75C912.15 202.667 918.114 204.125 924.937 204.125C929.364 204.125 933.4 203.5 937.046 202.25C940.692 200.948 943.843 199.021 946.499 196.469C949.155 193.917 951.187 190.766 952.593 187.016L974.702 191C972.932 197.51 969.754 203.214 965.171 208.109C960.64 212.953 954.937 216.729 948.062 219.437C941.239 222.094 933.452 223.422 924.702 223.422ZM999.58 61H1028.88L1079.81 185.375H1081.69L1132.63 61H1161.92V221H1138.95V105.219H1137.47L1090.28 220.766H1071.22L1024.03 105.141H1022.55V221H999.58V61ZM1225.67 223.656C1218.06 223.656 1211.19 222.25 1205.04 219.437C1198.9 216.573 1194.03 212.432 1190.43 207.016C1186.89 201.599 1185.12 194.958 1185.12 187.094C1185.12 180.323 1186.42 174.75 1189.03 170.375C1191.63 166 1195.15 162.536 1199.57 159.984C1204 157.432 1208.95 155.505 1214.42 154.203C1219.89 152.901 1225.46 151.911 1231.14 151.234C1238.32 150.401 1244.16 149.724 1248.64 149.203C1253.12 148.63 1256.37 147.719 1258.4 146.469C1260.43 145.219 1261.45 143.187 1261.45 140.375V139.828C1261.45 133.005 1259.52 127.719 1255.67 123.969C1251.87 120.219 1246.19 118.344 1238.64 118.344C1230.77 118.344 1224.57 120.089 1220.04 123.578C1215.56 127.016 1212.46 130.844 1210.75 135.062L1188.79 130.062C1191.4 122.771 1195.2 116.885 1200.2 112.406C1205.25 107.875 1211.06 104.594 1217.62 102.562C1224.18 100.479 1231.08 99.4375 1238.32 99.4375C1243.12 99.4375 1248.19 100.01 1253.56 101.156C1258.98 102.25 1264.03 104.281 1268.71 107.25C1273.45 110.219 1277.33 114.464 1280.36 119.984C1283.38 125.453 1284.89 132.563 1284.89 141.313V221H1262.07V204.594H1261.14C1259.63 207.615 1257.36 210.583 1254.34 213.5C1251.32 216.417 1247.44 218.839 1242.7 220.766C1237.96 222.693 1232.28 223.656 1225.67 223.656ZM1230.75 204.906C1237.2 204.906 1242.73 203.63 1247.31 201.078C1251.94 198.526 1255.46 195.193 1257.86 191.078C1260.3 186.911 1261.53 182.458 1261.53 177.719V162.25C1260.69 163.083 1259.08 163.865 1256.68 164.594C1254.34 165.271 1251.66 165.87 1248.64 166.391C1245.62 166.859 1242.67 167.302 1239.81 167.719C1236.94 168.083 1234.55 168.396 1232.62 168.656C1228.09 169.229 1223.95 170.193 1220.2 171.547C1216.5 172.901 1213.53 174.854 1211.29 177.406C1209.11 179.906 1208.01 183.24 1208.01 187.406C1208.01 193.187 1210.15 197.562 1214.42 200.531C1218.69 203.448 1224.13 204.906 1230.75 204.906ZM1334.96 149.75V221H1311.6V101H1334.02V120.531H1335.51C1338.27 114.177 1342.59 109.073 1348.47 105.219C1354.41 101.365 1361.89 99.4375 1370.9 99.4375C1379.07 99.4375 1386.24 101.156 1392.38 104.594C1398.53 107.979 1403.29 113.031 1406.68 119.75C1410.06 126.469 1411.76 134.776 1411.76 144.672V221H1388.4V147.484C1388.4 138.786 1386.13 131.99 1381.6 127.094C1377.07 122.146 1370.84 119.672 1362.93 119.672C1357.51 119.672 1352.69 120.844 1348.47 123.187C1344.31 125.531 1341 128.969 1338.55 133.5C1336.16 137.979 1334.96 143.396 1334.96 149.75Z" fill="white"/>
<path d="M168.974 238.195L141.269 281.911L0 281.793L131.345 74.399L225.472 222.984L295.91 111.675L272.535 74.7186L211.457 170.958L187.848 133.8L272.489 0L343.252 111.539L235.607 281.68L215.65 282L131.362 149.005L73.3664 240.592L120.014 240.758L145.297 200.901L168.974 238.195Z" fill="white"/>
<path d="M305.705 201.15L330.96 241.084L377.71 240.913L329.114 164.199L352.848 127L451.065 282.113L309.904 282.279L282 238.557L305.705 201.15Z" fill="white"/>
</svg>
